<svg width="29" height="29" viewBox="0 0 29 29" fill="none" xmlns="http://www.w3.org/2000/svg">
<rect x="2.25006" y="2.25" width="24.5" height="24.5" rx="6" fill="url(#paint0_radial_404_11)"/>
<rect x="2.25006" y="2.25" width="24.5" height="24.5" rx="6" fill="url(#paint1_radial_404_11)"/>
<rect x="2.25006" y="2.25" width="24.5" height="24.5" rx="6" fill="url(#paint2_radial_404_11)"/>
<path d="M20.6251 9.6875C20.6251 10.4124 20.0374 11 19.3126 11C18.5877 11 18.0001 10.4124 18.0001 9.6875C18.0001 8.96263 18.5877 8.375 19.3126 8.375C20.0374 8.375 20.6251 8.96263 20.6251 9.6875Z" fill="white"/>
<path fill-rule="evenodd" clip-rule="evenodd" d="M14.5001 18.875C16.9163 18.875 18.8751 16.9162 18.8751 14.5C18.8751 12.0838 16.9163 10.125 14.5001 10.125C12.0838 10.125 10.1251 12.0838 10.1251 14.5C10.1251 16.9162 12.0838 18.875 14.5001 18.875ZM14.5001 17.125C15.9498 17.125 17.1251 15.9497 17.1251 14.5C17.1251 13.0503 15.9498 11.875 14.5001 11.875C13.0503 11.875 11.8751 13.0503 11.8751 14.5C11.8751 15.9497 13.0503 17.125 14.5001 17.125Z" fill="white"/>
<path fill-rule="evenodd" clip-rule="evenodd" d="M5.75006 14.15C5.75006 11.2097 5.75006 9.73959 6.32228 8.61655C6.82561 7.6287 7.62876 6.82555 8.61661 6.32222C9.73965 5.75 11.2098 5.75 14.1501 5.75H14.8501C17.7903 5.75 19.2605 5.75 20.3835 6.32222C21.3714 6.82555 22.1745 7.6287 22.6778 8.61655C23.2501 9.73959 23.2501 11.2097 23.2501 14.15V14.85C23.2501 17.7903 23.2501 19.2604 22.6778 20.3835C22.1745 21.3713 21.3714 22.1744 20.3835 22.6778C19.2605 23.25 17.7903 23.25 14.8501 23.25H14.1501C11.2098 23.25 9.73965 23.25 8.61661 22.6778C7.62876 22.1744 6.82561 21.3713 6.32228 20.3835C5.75006 19.2604 5.75006 17.7903 5.75006 14.85V14.15ZM14.1501 7.5H14.8501C16.3491 7.5 17.3681 7.50136 18.1557 7.56572C18.923 7.6284 19.3153 7.74202 19.589 7.88148C20.2476 8.21703 20.783 8.75247 21.1186 9.41103C21.258 9.68473 21.3717 10.0771 21.4343 10.8443C21.4987 11.632 21.5001 12.651 21.5001 14.15V14.85C21.5001 16.349 21.4987 17.368 21.4343 18.1557C21.3717 18.9229 21.258 19.3153 21.1186 19.589C20.783 20.2475 20.2476 20.783 19.589 21.1185C19.3153 21.258 18.923 21.3716 18.1557 21.4343C17.3681 21.4986 16.3491 21.5 14.8501 21.5H14.1501C12.651 21.5 11.632 21.4986 10.8444 21.4343C10.0772 21.3716 9.68479 21.258 9.41109 21.1185C8.75253 20.783 8.21709 20.2475 7.88154 19.589C7.74208 19.3153 7.62846 18.9229 7.56578 18.1557C7.50142 17.368 7.50006 16.349 7.50006 14.85V14.15C7.50006 12.651 7.50142 11.632 7.56578 10.8443C7.62846 10.0771 7.74208 9.68473 7.88154 9.41103C8.21709 8.75247 8.75253 8.21703 9.41109 7.88148C9.68479 7.74202 10.0772 7.6284 10.8444 7.56572C11.632 7.50136 12.651 7.5 14.1501 7.5Z" fill="white"/>
<defs>
<radialGradient id="paint0_radial_404_11" cx="0" cy="0" r="1" gradientUnits="userSpaceOnUse" gradientTransform="translate(11.0001 20.625) rotate(-55.3758) scale(22.3297)">
<stop stop-color="#B13589"/>
<stop offset="0.79309" stop-color="#C62F94"/>
<stop offset="1" stop-color="#8A3AC8"/>
</radialGradient>
<radialGradient id="paint1_radial_404_11" cx="0" cy="0" r="1" gradientUnits="userSpaceOnUse" gradientTransform="translate(10.1251 27.625) rotate(-65.1363) scale(19.77)">
<stop stop-color="#E0E8B7"/>
<stop offset="0.444662" stop-color="#FB8A2E"/>
<stop offset="0.71474" stop-color="#E2425C"/>
<stop offset="1" stop-color="#E2425C" stop-opacity="0"/>
</radialGradient>
<radialGradient id="paint2_radial_404_11" cx="0" cy="0" r="1" gradientUnits="userSpaceOnUse" gradientTransform="translate(0.937562 3.125) rotate(-8.1301) scale(34.0295 7.27856)">
<stop offset="0.156701" stop-color="#406ADC"/>
<stop offset="0.467799" stop-color="#6A45BE"/>
<stop offset="1" stop-color="#6A45BE" stop-opacity="0"/>
</radialGradient>
</defs>
</svg>
