<svg width="111" height="80" viewBox="0 0 111 80" fill="none" xmlns="http://www.w3.org/2000/svg">
<g clip-path="url(#clip0_33_21)">
<path d="M3.72387 79.2216C2.91306 79.4454 2.2391 79.355 1.702 78.9503C1.17007 78.5443 0.904099 77.9265 0.904099 77.0971C0.904099 76.2678 1.17007 75.5059 1.702 74.8114C2.23394 74.1064 2.90789 73.6412 3.72387 73.416C4.20933 73.282 4.65864 73.2749 5.07179 73.3948C5.48495 73.5093 5.81031 73.7332 6.04787 74.0664L4.97884 74.9995C4.86006 74.8142 4.68963 74.6938 4.46756 74.6381C4.25065 74.5758 4.00276 74.583 3.72387 74.66C3.23842 74.7941 2.85367 75.0517 2.56963 75.4332C2.28559 75.8093 2.14356 76.25 2.14356 76.755C2.14356 77.26 2.28559 77.6222 2.56963 77.8415C2.85367 78.0662 3.23842 78.1116 3.72387 77.9775C3.99759 77.9019 4.24548 77.7723 4.46756 77.5888C4.69479 77.4038 4.86522 77.1893 4.97884 76.9452L6.04787 77.2881C5.81547 77.7511 5.49269 78.1565 5.07954 78.5044C4.66638 78.8471 4.21449 79.0861 3.72387 79.2216Z" fill="#FF6417"/>
<path d="M11.4316 76.9822L10.076 77.3565L9.80487 76.5541L7.79074 77.11L7.51961 78.0621L6.16394 78.4364L8.00765 72.3451L9.58797 71.9089L11.4316 76.9822ZM8.7978 73.5864L8.16258 75.8112L9.43303 75.4605L8.7978 73.5864Z" fill="#FF6417"/>
<path d="M11.8941 71.2723L13.9469 70.7056C14.484 70.5573 14.9333 70.6193 15.2948 70.8917C15.6615 71.168 15.8448 71.5692 15.8448 72.0956C15.8448 72.6219 15.6615 73.1245 15.2948 73.6031C14.9333 74.075 14.484 74.3851 13.9469 74.5334L13.1335 74.7579V76.5124L11.8941 76.8546V71.2723ZM13.1335 73.5618L13.9469 73.3372C14.138 73.2845 14.2955 73.1718 14.4194 72.9995C14.5434 72.827 14.6054 72.6398 14.6054 72.4377C14.6054 72.2357 14.5434 72.0827 14.4194 71.9787C14.2955 71.8747 14.138 71.849 13.9469 71.9018L13.1335 72.1263V73.5618Z" fill="#FF6417"/>
<path d="M16.4633 75.5932V70.0109L17.7028 69.6688V75.251L16.4633 75.5932Z" fill="#FF6417"/>
<path d="M18.2472 69.5184L22.2754 68.4064V69.6346L20.8811 70.0195V74.3737L19.6416 74.7158V70.3617L18.2472 70.7466V69.5184Z" fill="#FF6417"/>
<path d="M27.2351 72.6196L25.8795 72.9939L25.6083 72.1915L23.5942 72.7475L23.3231 73.6995L21.9674 74.0737L23.8111 67.9825L25.3914 67.5463L27.2351 72.6196ZM24.6013 69.2238L23.9661 71.4486L25.2365 71.098L24.6013 69.2238Z" fill="#FF6417"/>
<path d="M28.9369 66.5676V70.9218L30.8737 70.3871V71.6153L27.6975 72.492V66.9097L28.9369 66.5676Z" fill="#FF6417"/>
<path d="M36.6485 64.4388V65.6669L34.5957 66.2336V67.3101L36.6098 66.7542V67.9822L34.5957 68.5383V70.5877L33.3562 70.93V65.3476L36.6485 64.4388Z" fill="#FF6417"/>
<path d="M41.9668 67.8272C41.4194 68.5366 40.7531 68.9996 39.9681 69.2163C39.1832 69.433 38.517 69.3379 37.9695 68.9307C37.4221 68.5236 37.1484 67.9106 37.1484 67.0919C37.1484 66.2732 37.4221 65.5092 37.9695 64.7998C38.517 64.0905 39.1832 63.6274 39.9681 63.4108C40.7531 63.1941 41.4194 63.2892 41.9668 63.6964C42.5143 64.1035 42.7879 64.7164 42.7879 65.5352C42.7879 66.3539 42.5143 67.1179 41.9668 67.8272ZM38.3878 66.7498C38.3878 67.2388 38.5376 67.5963 38.8371 67.8219C39.1367 68.0476 39.5137 68.0978 39.9681 67.9722C40.4175 67.8482 40.7919 67.5907 41.0914 67.1997C41.3962 66.8019 41.5485 66.3611 41.5485 65.8773C41.5485 65.3934 41.3962 65.0368 41.0914 64.8073C40.7919 64.5816 40.4175 64.5308 39.9681 64.6548C39.5137 64.7802 39.1367 65.0385 38.8371 65.4295C38.5376 65.8206 38.3878 66.2607 38.3878 66.7498Z" fill="#FF6417"/>
<path d="M47.669 66.9789L46.3366 67.3467L45.314 65.7948L44.7253 65.9573V67.7915L43.4858 68.1336V62.5514L45.6548 61.9526C46.1713 61.81 46.6103 61.8749 46.9718 62.1473C47.3333 62.4196 47.514 62.8216 47.514 63.3532C47.514 63.6882 47.4211 64.0275 47.2352 64.3713C47.0544 64.7136 46.8143 65.0058 46.5147 65.248L47.669 66.9789ZM45.6548 63.1488L44.7253 63.4054V64.8408L45.6548 64.5842C45.8253 64.5371 45.97 64.4281 46.0887 64.2571C46.2126 64.0847 46.2746 63.8974 46.2746 63.6955C46.2746 63.4934 46.2126 63.3404 46.0887 63.2364C45.97 63.1309 45.8253 63.1017 45.6548 63.1488Z" fill="#FF6417"/>
<path d="M52.7758 65.6807C51.9651 65.9046 51.2911 65.8142 50.754 65.4096C50.222 65.0034 49.9561 64.3858 49.9561 63.5564C49.9561 62.727 50.222 61.9651 50.754 61.2706C51.2859 60.5656 51.9599 60.1005 52.7758 59.8752C53.2613 59.7412 53.7106 59.7341 54.1238 59.854C54.537 59.9685 54.8623 60.1924 55.0999 60.5255L54.0309 61.4586C53.9121 61.2734 53.7416 61.153 53.5195 61.0973C53.3027 61.035 53.0547 61.0423 52.7758 61.1193C52.2905 61.2533 51.9057 61.511 51.6217 61.8925C51.3376 62.2686 51.1956 62.7092 51.1956 63.2142C51.1956 63.7193 51.3376 64.0814 51.6217 64.3008C51.9057 64.5254 52.2905 64.5707 52.7758 64.4367C53.0496 64.3611 53.2974 64.2316 53.5195 64.048C53.7468 63.863 53.9172 63.6485 54.0309 63.4045L55.0999 63.7473C54.8675 64.2102 54.5447 64.6157 54.1315 64.9636C53.7184 65.3063 53.2665 65.5453 52.7758 65.6807Z" fill="#FF6417"/>
<path d="M59.8639 63.6125L58.5316 63.9803L57.509 62.4284L56.9202 62.5909V64.425L55.6808 64.7673V59.1849L57.8498 58.5862C58.3662 58.4436 58.8052 58.5085 59.1667 58.7809C59.5283 59.0532 59.709 59.4553 59.709 59.9869C59.709 60.3218 59.616 60.6612 59.4301 61.0049C59.2494 61.3472 59.0093 61.6394 58.7096 61.8816L59.8639 63.6125ZM57.8498 59.7823L56.9202 60.039V61.4745L57.8498 61.2179C58.0202 61.1708 58.1648 61.0617 58.2836 60.8907C58.4075 60.7183 58.4695 60.531 58.4695 60.329C58.4695 60.127 58.4075 59.974 58.2836 59.8699C58.1648 59.7646 58.0202 59.7354 57.8498 59.7823Z" fill="#FF6417"/>
<path d="M61.6862 60.8925V61.8813L63.8552 61.2826V62.5106L60.4467 63.4515V57.8693L63.8166 56.939V58.1672L61.6862 58.7552V59.6803L63.6229 59.1457V60.3578L61.6862 60.8925Z" fill="#FF6417"/>
<path d="M69.4332 60.9709L68.0775 61.3451L67.8063 60.5427L65.7923 61.0987L65.5211 62.0508L64.1654 62.425L66.0091 56.3338L67.5895 55.8976L69.4332 60.9709ZM66.7993 57.5751L66.1641 59.7999L67.4345 59.4491L66.7993 57.5751Z" fill="#FF6417"/>
<path d="M69.1223 55.4744L73.1506 54.3624V55.5904L71.7563 55.9754V60.3296L70.5167 60.6718V56.3176L69.1223 56.7024V55.4744Z" fill="#FF6417"/>
<path d="M77.9691 57.8888C77.4216 58.5982 76.7554 59.0612 75.9704 59.2779C75.1855 59.4946 74.5192 59.3994 73.9718 58.9923C73.4244 58.5851 73.1507 57.9723 73.1507 57.1536C73.1507 56.3348 73.4244 55.5707 73.9718 54.8614C74.5192 54.1521 75.1855 53.689 75.9704 53.4723C76.7554 53.2557 77.4216 53.3509 77.9691 53.7579C78.5165 54.1651 78.7902 54.778 78.7902 55.5967C78.7902 56.4155 78.5165 57.1795 77.9691 57.8888ZM74.3901 56.8113C74.3901 57.3005 74.5399 57.6579 74.8394 57.8835C75.1389 58.1092 75.516 58.1593 75.9704 58.0339C76.4198 57.9098 76.7942 57.6523 77.0937 57.2613C77.3983 56.8635 77.5508 56.4226 77.5508 55.9389C77.5508 55.4551 77.3983 55.0984 77.0937 54.8689C76.7942 54.6432 76.4198 54.5923 75.9704 54.7164C75.516 54.8419 75.1389 55.1 74.8394 55.4911C74.5399 55.8822 74.3901 56.3223 74.3901 56.8113Z" fill="#FF6417"/>
<path d="M83.6713 57.0404L82.3388 57.4083L81.3162 55.8564L80.7276 56.0189V57.8531L79.488 58.1952V52.613L81.6571 52.0141C82.1736 51.8716 82.6125 51.9365 82.9741 52.2088C83.3356 52.4812 83.5163 52.8832 83.5163 53.4149C83.5163 53.7498 83.4234 54.0891 83.2374 54.4328C83.0566 54.7752 82.8165 55.0674 82.517 55.3096L83.6713 57.0404ZM81.6571 53.2104L80.7276 53.467V54.9024L81.6571 54.6458C81.8276 54.5988 81.9721 54.4898 82.0909 54.3188C82.2149 54.1463 82.2769 53.9591 82.2769 53.757C82.2769 53.555 82.2149 53.402 82.0909 53.298C81.9721 53.1925 81.8276 53.1633 81.6571 53.2104Z" fill="#FF6417"/>
<path d="M86.0764 56.4882C85.534 56.6378 85.0771 56.6444 84.7052 56.5078C84.3334 56.3659 84.0674 56.0991 83.9073 55.7073L84.9763 54.7742C85.1932 55.23 85.5728 55.3832 86.115 55.2335C86.6056 55.098 86.851 54.8787 86.851 54.5757C86.851 54.4056 86.771 54.3 86.6109 54.2592C86.4456 54.2038 86.1512 54.1761 85.7277 54.176C85.2939 54.1735 84.9272 54.0993 84.6277 53.9533C84.2972 53.7682 84.1319 53.4231 84.1319 52.9179C84.1319 52.4023 84.3101 51.9411 84.6664 51.5343C85.0279 51.1261 85.4566 50.8537 85.9523 50.7168C86.3965 50.5942 86.789 50.5948 87.1299 50.7187C87.4708 50.8373 87.7393 51.0742 87.9355 51.4294L86.8898 52.348C86.6935 51.9716 86.381 51.8425 85.9523 51.9608C85.7716 52.0108 85.6296 52.0899 85.5263 52.1981C85.423 52.3064 85.3714 52.4216 85.3714 52.5439C85.3714 52.6768 85.4334 52.7793 85.5573 52.8514C85.6916 52.9207 85.955 52.9597 86.3475 52.9682L86.851 52.9968C86.9801 53.0036 87.1299 53.0341 87.3003 53.088C87.4863 53.1324 87.6257 53.1976 87.7186 53.2835C87.9665 53.4915 88.0904 53.8029 88.0904 54.2177C88.0904 54.7439 87.9046 55.2153 87.5327 55.6316C87.1609 56.0373 86.6754 56.3228 86.0764 56.4882Z" fill="#FF6417"/>
<path d="M0.533554 27.5297L6.97123 25.8248V61.6257L17.5517 58.7446V64.7114L0.533554 69.3143V27.5297Z" fill="#212529"/>
<path d="M19.5465 22.3897L25.9755 20.6849V62.4525L19.5465 64.1573V22.3897Z" fill="#212529"/>
<path d="M30.9262 58.9578C29.3275 57.5769 28.5282 55.1988 28.5282 51.8233V49.4365L34.6135 47.7914V50.6555C34.6135 53.3547 35.7222 54.406 37.9398 53.8094C38.9452 53.5706 39.8301 52.9805 40.4322 52.1471C41.0575 51.122 41.357 49.9339 41.2918 48.7376C41.3582 47.2176 40.95 45.7143 40.1229 44.4329C38.9408 42.9558 37.4814 41.7198 35.8253 40.7931C33.634 39.5511 31.7375 37.8562 30.2644 35.8237C29.1586 33.9815 28.6098 31.8632 28.6829 29.7205C28.5847 26.7528 29.4461 23.8317 31.141 21.384C32.8967 19.0543 35.4215 17.4102 38.2749 16.7385C41.3634 15.9145 43.6955 16.1985 45.2713 17.5909C46.8442 18.9803 47.6349 21.3584 47.6349 24.7424V26.4473L41.541 28.0583V25.9102C41.541 24.4782 41.2545 23.5065 40.6816 22.995C40.3488 22.7312 39.9504 22.561 39.5285 22.5025C39.1066 22.4441 38.6764 22.4994 38.2835 22.6626C36.1405 23.2309 35.069 24.8533 35.069 27.5299C35.0334 28.9274 35.4523 30.2991 36.2637 31.4424C37.4833 32.8923 38.9601 34.1085 40.6213 35.031C42.8386 36.2522 44.7417 37.9645 46.1823 40.0345C47.2702 42.0087 47.7961 44.2393 47.7037 46.4872C47.8131 49.5185 46.9428 52.5051 45.2198 55.0112C43.4408 57.3697 40.8819 59.0323 37.9913 59.708C34.897 60.5888 32.542 60.3387 30.9262 58.9578Z" fill="#212529"/>
<path d="M55.3449 18.6821L48.615 20.4978V14.5309L68.5038 9.1523V15.1191L61.7739 16.9774V52.7782L55.3449 54.4829V18.6821Z" fill="#212529"/>
<path d="M70.463 8.61506L88.0141 3.86719V9.83399L76.9006 12.843V23.9242L85.7363 21.5375V27.5042L76.9006 29.891V42.677L88.0141 39.668V45.6348L70.463 50.3826V8.61506Z" fill="#212529"/>
<path d="M90.6183 3.17643L100.442 0.516942C103.64 -0.352506 106.037 -0.12521 107.636 1.19886C109.235 2.52292 110.035 4.87272 110.035 8.24822V29.3622C110.159 32.3296 109.317 35.2579 107.636 37.7156C105.846 40.0203 103.302 41.6355 100.442 42.2846L90.6183 44.944V3.17643ZM100.322 36.3519C101.301 36.1153 102.163 35.5412 102.754 34.7323C103.378 33.738 103.678 32.5772 103.614 31.4079V9.68878C103.614 8.25675 103.33 7.29353 102.754 6.80766C102.405 6.5631 102 6.40854 101.575 6.35794C101.151 6.30736 100.72 6.36232 100.322 6.51785L97.0474 7.37024V37.2043L100.322 36.3519Z" fill="#212529"/>
<path d="M110.033 50.2475V44.0914L96.3455 47.7929L92.9235 48.7183L91.2126 49.1811V55.3356L92.9235 54.873L96.3455 53.948L110.033 50.2475Z" fill="#212529"/>
</g>
<defs>
<clipPath id="clip0_33_21">
<rect width="110" height="80" fill="white" transform="translate(0.244537)"/>
</clipPath>
</defs>
</svg>
