<svg width="29" height="29" viewBox="0 0 29 29" fill="none" xmlns="http://www.w3.org/2000/svg">
<path d="M10.8257 26.4C8.05289 26.4 5.46812 25.5655 3.29254 24.1255C5.13968 24.2492 8.39946 23.953 10.427 21.9517C7.37689 21.8069 6.00134 19.3862 5.82192 18.3517C6.08108 18.4552 7.31709 18.5793 8.01483 18.2897C4.50617 17.3793 3.96791 14.1931 4.08752 13.2207C4.7454 13.6966 5.86179 13.8621 6.30037 13.8207C3.03094 11.4 4.20714 7.75862 4.78527 6.97241C7.13153 10.336 10.6479 12.2252 14.998 12.3302C14.916 11.958 14.8727 11.5705 14.8727 11.1724C14.8727 8.31577 17.104 6 19.8566 6C21.2947 6 22.5906 6.63218 23.5003 7.64339C24.4613 7.41035 25.9077 6.86484 26.6147 6.3931C26.2583 7.71724 25.1488 8.82184 24.4776 9.23125C24.4832 9.24518 24.4721 9.21726 24.4776 9.23125C25.0672 9.13897 26.6624 8.82174 27.2925 8.37931C26.9809 9.1232 25.8045 10.36 24.8392 11.0525C25.0188 19.2494 18.9581 26.4 10.8257 26.4Z" fill="#47ACDF"/>
</svg>
