<svg width="32" height="32" viewBox="0 0 32 32" fill="none" xmlns="http://www.w3.org/2000/svg">
<path d="M23.9997 10.5464C23.9597 10.5464 23.9331 10.5464 23.8931 10.5464H23.8264C21.3064 10.4664 19.4264 8.51969 19.4264 6.11969C19.4264 3.66636 21.4264 1.67969 23.8664 1.67969C26.3064 1.67969 28.3064 3.67969 28.3064 6.11969C28.2931 8.53302 26.4131 10.4797 24.0131 10.5597C24.0131 10.5464 24.0131 10.5464 23.9997 10.5464ZM23.8664 3.66636C22.5197 3.66636 21.4264 4.7597 21.4264 6.10636C21.4264 7.42636 22.4531 8.49303 23.7731 8.54637C23.7864 8.53303 23.8931 8.53303 24.0131 8.54637C25.3064 8.4797 26.3064 7.41303 26.3197 6.10636C26.3197 4.7597 25.2264 3.66636 23.8664 3.66636Z" fill="#0E6FFF"/>
<path d="M24.0134 20.3742C23.4934 20.3742 22.9734 20.3342 22.4534 20.2408C21.9067 20.1475 21.5467 19.6275 21.64 19.0808C21.7334 18.5342 22.2534 18.1742 22.8 18.2675C24.44 18.5475 26.1734 18.2409 27.3334 17.4675C27.96 17.0542 28.2934 16.5342 28.2934 16.0142C28.2934 15.4942 27.9467 14.9875 27.3334 14.5742C26.1734 13.8008 24.4134 13.4942 22.76 13.7875C22.2134 13.8942 21.6934 13.5208 21.6 12.9742C21.5067 12.4275 21.8667 11.9075 22.4134 11.8142C24.5867 11.4275 26.84 11.8408 28.44 12.9075C29.6134 13.6942 30.2934 14.8142 30.2934 16.0142C30.2934 17.2008 29.6267 18.3342 28.44 19.1342C27.2267 19.9342 25.6534 20.3742 24.0134 20.3742Z" fill="#0E6FFF"/>
<path d="M7.96002 10.546C7.94668 10.546 7.93335 10.546 7.93335 10.546C5.53335 10.466 3.65335 8.51934 3.64001 6.11934C3.64001 3.66601 5.64002 1.66602 8.08002 1.66602C10.52 1.66602 12.52 3.66602 12.52 6.10602C12.52 8.51935 10.64 10.466 8.24002 10.546L7.96002 9.54602L8.05335 10.546C8.02668 10.546 7.98668 10.546 7.96002 10.546ZM8.09335 8.54602C8.17335 8.54602 8.24002 8.54601 8.32002 8.55935C9.50668 8.50601 10.5467 7.43934 10.5467 6.11934C10.5467 4.77268 9.45335 3.67934 8.10668 3.67934C6.76002 3.67934 5.66668 4.77268 5.66668 6.11934C5.66668 7.42601 6.68001 8.47935 7.97335 8.55935C7.98668 8.54601 8.04002 8.54602 8.09335 8.54602Z" fill="#0E6FFF"/>
<path d="M7.94662 20.3742C6.30662 20.3742 4.73329 19.9342 3.51996 19.1342C2.34663 18.3475 1.66663 17.2142 1.66663 16.0142C1.66663 14.8275 2.34663 13.6942 3.51996 12.9075C5.11996 11.8408 7.37329 11.4275 9.54663 11.8142C10.0933 11.9075 10.4533 12.4275 10.36 12.9742C10.2666 13.5208 9.74663 13.8942 9.19996 13.7875C7.54663 13.4942 5.79996 13.8008 4.62663 14.5742C3.99996 14.9875 3.66663 15.4942 3.66663 16.0142C3.66663 16.5342 4.01329 17.0542 4.62663 17.4675C5.78663 18.2409 7.51996 18.5475 9.15996 18.2675C9.70662 18.1742 10.2266 18.5475 10.32 19.0808C10.4133 19.6275 10.0533 20.1475 9.50663 20.2408C8.98663 20.3342 8.46662 20.3742 7.94662 20.3742Z" fill="#0E6FFF"/>
<path d="M15.9997 20.5073C15.9597 20.5073 15.9331 20.5073 15.8931 20.5073H15.8264C13.3064 20.4273 11.4264 18.4806 11.4264 16.0806C11.4264 13.6273 13.4264 11.6406 15.8664 11.6406C18.3064 11.6406 20.3064 13.6406 20.3064 16.0806C20.2931 18.494 18.4131 20.4406 16.0131 20.5206C16.0131 20.5073 16.0131 20.5073 15.9997 20.5073ZM15.8664 13.6273C14.5197 13.6273 13.4264 14.7206 13.4264 16.0673C13.4264 17.3873 14.4531 18.454 15.7731 18.5073C15.7864 18.494 15.8931 18.494 16.0131 18.5073C17.3064 18.4406 18.3064 17.374 18.3197 16.0673C18.3197 14.734 17.2264 13.6273 15.8664 13.6273Z" fill="#0E6FFF"/>
<path d="M15.9998 30.347C14.3998 30.347 12.7998 29.9336 11.5598 29.0936C10.3864 28.307 9.70642 27.187 9.70642 25.987C9.70642 24.8003 10.3731 23.6536 11.5598 22.867C14.0531 21.2136 17.9598 21.2136 20.4398 22.867C21.6131 23.6536 22.2931 24.7736 22.2931 25.9736C22.2931 27.1603 21.6264 28.307 20.4398 29.0936C19.1998 29.9203 17.5998 30.347 15.9998 30.347ZM12.6664 24.547C12.0398 24.9603 11.7064 25.4803 11.7064 26.0003C11.7064 26.5203 12.0531 27.027 12.6664 27.4403C14.4664 28.6536 17.5198 28.6536 19.3198 27.4403C19.9464 27.027 20.2798 26.507 20.2798 25.987C20.2798 25.467 19.9331 24.9603 19.3198 24.547C17.5331 23.3336 14.4798 23.347 12.6664 24.547Z" fill="#0E6FFF"/>
</svg>
