<svg width="29" height="29" viewBox="0 0 29 29" fill="none" xmlns="http://www.w3.org/2000/svg">
<rect x="2.25006" y="2.25" width="24.5" height="24.5" rx="12.25" fill="#1275B1"/>
<path d="M11.5413 8.98063C11.5413 9.79836 10.8325 10.4613 9.95818 10.4613C9.08385 10.4613 8.37506 9.79836 8.37506 8.98063C8.37506 8.1629 9.08385 7.5 9.95818 7.5C10.8325 7.5 11.5413 8.1629 11.5413 8.98063Z" fill="white"/>
<path d="M8.59156 11.5496H11.2977V19.75H8.59156V11.5496Z" fill="white"/>
<path d="M15.6547 11.5496H12.9485V19.75H15.6547C15.6547 19.75 15.6547 17.1684 15.6547 15.5542C15.6547 14.5854 15.9855 13.6123 17.3055 13.6123C18.7972 13.6123 18.7882 14.8802 18.7813 15.8625C18.7722 17.1464 18.7939 18.4566 18.7939 19.75H21.5001V15.422C21.4771 12.6585 20.757 11.3851 18.3879 11.3851C16.981 11.3851 16.1089 12.0238 15.6547 12.6017V11.5496Z" fill="white"/>
</svg>
