<svg width="110" height="80" viewBox="0 0 110 80" fill="none" xmlns="http://www.w3.org/2000/svg">
<g clip-path="url(#clip0_7_13)">
<path d="M3.46762 79.2216C2.65953 79.4454 1.98785 79.355 1.45255 78.9503C0.922409 78.5443 0.657337 77.9265 0.657337 77.0971C0.657337 76.2678 0.922409 75.5059 1.45255 74.8114C1.9827 74.1064 2.65438 73.6412 3.46762 73.416C3.95144 73.282 4.39924 73.2749 4.811 73.3948C5.22277 73.5093 5.54703 73.7332 5.78379 74.0664L4.71835 74.9995C4.59998 74.8142 4.43012 74.6938 4.2088 74.6381C3.99262 74.5758 3.74556 74.583 3.46762 74.66C2.9838 74.7941 2.60034 75.0517 2.31726 75.4332C2.03417 75.8093 1.89263 76.25 1.89263 76.755C1.89263 77.26 2.03417 77.6222 2.31726 77.8415C2.60034 78.0662 2.9838 78.1116 3.46762 77.9775C3.74042 77.9019 3.98747 77.7723 4.2088 77.5888C4.43527 77.4038 4.60512 77.1893 4.71835 76.9452L5.78379 77.2881C5.55218 77.7511 5.23048 78.1565 4.81872 78.5044C4.40695 78.8471 3.95659 79.0861 3.46762 79.2216Z" fill="#FF6417"/>
<path d="M11.1494 76.9822L9.79836 77.3565L9.52814 76.5541L7.52079 77.11L7.25058 78.0621L5.89948 78.4364L7.73697 72.3451L9.31197 71.9089L11.1494 76.9822ZM8.52447 73.5864L7.89138 75.8112L9.15755 75.4605L8.52447 73.5864Z" fill="#FF6417"/>
<path d="M11.6103 71.2723L13.6562 70.7056C14.1915 70.5573 14.6393 70.6193 14.9996 70.8917C15.3651 71.168 15.5478 71.5692 15.5478 72.0956C15.5478 72.6219 15.3651 73.1245 14.9996 73.6031C14.6393 74.075 14.1915 74.3851 13.6562 74.5334L12.8456 74.7579V76.5124L11.6103 76.8546V71.2723ZM12.8456 73.5618L13.6562 73.3372C13.8466 73.2845 14.0037 73.1718 14.1272 72.9995C14.2507 72.827 14.3125 72.6398 14.3125 72.4377C14.3125 72.2357 14.2507 72.0827 14.1272 71.9787C14.0037 71.8747 13.8466 71.849 13.6562 71.9018L12.8456 72.1263V73.5618Z" fill="#FF6417"/>
<path d="M16.1642 75.5932V70.0109L17.3995 69.6688V75.251L16.1642 75.5932Z" fill="#FF6417"/>
<path d="M17.9421 69.5184L21.9567 68.4064V69.6346L20.567 70.0195V74.3737L19.3318 74.7158V70.3617L17.9421 70.7466V69.5184Z" fill="#FF6417"/>
<path d="M26.8997 72.6196L25.5486 72.9939L25.2784 72.1915L23.271 72.7475L23.0008 73.6995L21.6498 74.0737L23.4873 67.9825L25.0622 67.5463L26.8997 72.6196ZM24.2747 69.2238L23.6417 71.4486L24.9079 71.098L24.2747 69.2238Z" fill="#FF6417"/>
<path d="M28.5958 66.5676V70.9218L30.526 70.3871V71.6153L27.3605 72.492V66.9097L28.5958 66.5676Z" fill="#FF6417"/>
<path d="M36.2814 64.4388V65.6669L34.2355 66.2336V67.3101L36.2428 66.7542V67.9822L34.2355 68.5383V70.5877L33.0002 70.93V65.3476L36.2814 64.4388Z" fill="#FF6417"/>
<path d="M41.5818 67.8272C41.0363 68.5366 40.3722 68.9996 39.5899 69.2163C38.8075 69.433 38.1436 69.3379 37.598 68.9307C37.0524 68.5236 36.7796 67.9106 36.7796 67.0919C36.7796 66.2732 37.0524 65.5092 37.598 64.7998C38.1436 64.0905 38.8075 63.6274 39.5899 63.4108C40.3722 63.1941 41.0363 63.2892 41.5818 63.6964C42.1274 64.1035 42.4001 64.7164 42.4001 65.5352C42.4001 66.3539 42.1274 67.1179 41.5818 67.8272ZM38.0149 66.7498C38.0149 67.2388 38.1642 67.5963 38.4627 67.8219C38.7612 68.0476 39.1369 68.0978 39.5899 67.9723C40.0377 67.8482 40.4108 67.5907 40.7093 67.1997C41.0131 66.8019 41.1649 66.3611 41.1649 65.8773C41.1649 65.3934 41.0131 65.0368 40.7093 64.8073C40.4108 64.5816 40.0377 64.5308 39.5899 64.6548C39.1369 64.7802 38.7612 65.0385 38.4627 65.4295C38.1642 65.8206 38.0149 66.2607 38.0149 66.7498Z" fill="#FF6417"/>
<path d="M47.2648 66.9789L45.9369 67.3467L44.9178 65.7948L44.331 65.9573V67.7915L43.0957 68.1336V62.5514L45.2574 61.9526C45.7721 61.81 46.2096 61.8749 46.5699 62.1473C46.9302 62.4196 47.1104 62.8216 47.1104 63.3532C47.1104 63.6882 47.0177 64.0275 46.8324 64.3713C46.6523 64.7136 46.413 65.0058 46.1144 65.248L47.2648 66.9789ZM45.2574 63.1488L44.331 63.4054V64.8408L45.2574 64.5842C45.4273 64.5371 45.5715 64.4281 45.6898 64.2571C45.8133 64.0847 45.8751 63.8974 45.8751 63.6955C45.8751 63.4934 45.8133 63.3404 45.6898 63.2364C45.5715 63.1309 45.4273 63.1017 45.2574 63.1488Z" fill="#FF6417"/>
<path d="M52.3544 65.6807C51.5464 65.9046 50.8747 65.8142 50.3394 65.4096C49.8092 65.0034 49.5441 64.3858 49.5441 63.5564C49.5441 62.727 49.8092 61.9651 50.3394 61.2706C50.8695 60.5656 51.5413 60.1005 52.3544 59.8752C52.8382 59.7412 53.2861 59.7341 53.6978 59.854C54.1096 59.9685 54.4338 60.1924 54.6706 60.5255L53.6052 61.4586C53.4868 61.2734 53.317 61.153 53.0956 61.0973C52.8795 61.035 52.6324 61.0423 52.3544 61.1193C51.8707 61.2533 51.4872 61.511 51.2041 61.8925C50.921 62.2686 50.7795 62.7092 50.7795 63.2142C50.7795 63.7193 50.921 64.0814 51.2041 64.3008C51.4872 64.5254 51.8707 64.5707 52.3544 64.4367C52.6272 64.3611 52.8743 64.2316 53.0956 64.048C53.3221 63.863 53.4919 63.6485 53.6052 63.4045L54.6706 63.7473C54.439 64.2102 54.1174 64.6157 53.7056 64.9636C53.2938 65.3063 52.8435 65.5453 52.3544 65.6807Z" fill="#FF6417"/>
<path d="M59.4186 63.6125L58.0908 63.9803L57.0716 62.4284L56.4848 62.5908V64.425L55.2496 64.7673V59.1849L57.4113 58.5862C57.926 58.4436 58.3635 58.5085 58.7238 58.7809C59.0841 59.0532 59.2642 59.4553 59.2642 59.9869C59.2642 60.3218 59.1716 60.6612 58.9863 61.0049C58.8062 61.3472 58.5669 61.6394 58.2683 61.8816L59.4186 63.6125ZM57.4113 59.7823L56.4848 60.039V61.4745L57.4113 61.2179C57.5811 61.1708 57.7252 61.0617 57.8436 60.8907C57.9671 60.7183 58.0289 60.531 58.0289 60.329C58.0289 60.127 57.9671 59.974 57.8436 59.8699C57.7252 59.7646 57.5811 59.7354 57.4113 59.7823Z" fill="#FF6417"/>
<path d="M61.2348 60.8925V61.8814L63.3965 61.2826V62.5107L59.9995 63.4515V57.8693L63.358 56.939V58.1672L61.2348 58.7552V59.6803L63.1649 59.1457V60.3578L61.2348 60.8925Z" fill="#FF6417"/>
<path d="M68.9557 60.9709L67.6045 61.3451L67.3343 60.5427L65.327 61.0987L65.0567 62.0508L63.7057 62.425L65.5432 56.3338L67.1182 55.8976L68.9557 60.9709ZM66.3306 57.5751L65.6976 59.7999L66.9638 59.4491L66.3306 57.5751Z" fill="#FF6417"/>
<path d="M68.6459 55.4744L72.6606 54.3624V55.5904L71.271 55.9754V60.3296L70.0356 60.6718V56.3176L68.6459 56.7024V55.4744Z" fill="#FF6417"/>
<path d="M77.4628 57.8888C76.9172 58.5982 76.2533 59.0612 75.4709 59.2779C74.6886 59.4946 74.0245 59.3994 73.479 58.9923C72.9335 58.5851 72.6606 57.9723 72.6606 57.1536C72.6606 56.3348 72.9335 55.5707 73.479 54.8614C74.0245 54.1521 74.6886 53.689 75.4709 53.4723C76.2533 53.2557 76.9172 53.3509 77.4628 53.7579C78.0084 54.1651 78.2812 54.778 78.2812 55.5967C78.2812 56.4155 78.0084 57.1795 77.4628 57.8888ZM73.8959 56.8113C73.8959 57.3005 74.0452 57.6579 74.3437 57.8835C74.6422 58.1092 75.018 58.1593 75.4709 58.0339C75.9187 57.9098 76.2919 57.6523 76.5904 57.2613C76.894 56.8635 77.0459 56.4226 77.0459 55.9389C77.0459 55.4551 76.894 55.0984 76.5904 54.8689C76.2919 54.6432 75.9187 54.5923 75.4709 54.7164C75.018 54.8419 74.6422 55.1 74.3437 55.4911C74.0452 55.8822 73.8959 56.3223 73.8959 56.8113Z" fill="#FF6417"/>
<path d="M83.1458 57.0404L81.8179 57.4083L80.7987 55.8564L80.212 56.0189V57.8531L78.9767 58.1952V52.613L81.1385 52.0141C81.6532 51.8716 82.0907 51.9365 82.451 52.2088C82.8113 52.4812 82.9914 52.8832 82.9914 53.4149C82.9914 53.7498 82.8988 54.0891 82.7135 54.4328C82.5333 54.7752 82.294 55.0674 81.9954 55.3096L83.1458 57.0404ZM81.1385 53.2104L80.212 53.467V54.9024L81.1385 54.6458C81.3083 54.5988 81.4524 54.4898 81.5708 54.3188C81.6943 54.1463 81.7561 53.9591 81.7561 53.757C81.7561 53.555 81.6943 53.402 81.5708 53.298C81.4524 53.1925 81.3083 53.1633 81.1385 53.2104Z" fill="#FF6417"/>
<path d="M85.5429 56.4882C85.0023 56.6378 84.5469 56.6444 84.1762 56.5078C83.8057 56.3659 83.5406 56.0991 83.3811 55.7073L84.4465 54.7742C84.6627 55.23 85.041 55.3832 85.5814 55.2335C86.0703 55.098 86.3149 54.8787 86.3149 54.5757C86.3149 54.4056 86.2351 54.3 86.0755 54.2592C85.9108 54.2038 85.6174 54.1761 85.1954 54.176C84.763 54.1735 84.3976 54.0993 84.0991 53.9533C83.7697 53.7682 83.6049 53.4231 83.6049 52.9179C83.6049 52.4023 83.7825 51.9411 84.1376 51.5343C84.4979 51.1261 84.9252 50.8537 85.4192 50.7168C85.8619 50.5942 86.253 50.5948 86.5928 50.7187C86.9325 50.8373 87.2001 51.0742 87.3957 51.4294L86.3535 52.348C86.1579 51.9716 85.8465 51.8425 85.4192 51.9608C85.2391 52.0108 85.0975 52.0899 84.9946 52.1981C84.8917 52.3064 84.8403 52.4216 84.8403 52.5439C84.8403 52.6768 84.902 52.7793 85.0255 52.8514C85.1594 52.9207 85.4218 52.9597 85.8131 52.9682L86.3149 52.9968C86.4435 53.0036 86.5928 53.0341 86.7627 53.088C86.948 53.1324 87.087 53.1976 87.1796 53.2835C87.4266 53.4915 87.5501 53.8029 87.5501 54.2177C87.5501 54.7439 87.3649 55.2153 86.9943 55.6316C86.6237 56.0373 86.1399 56.3228 85.5429 56.4882Z" fill="#FF6417"/>
<path d="M0.288044 27.5297L6.70404 25.8248V61.6257L17.2489 58.7446V64.7114L0.288044 69.3143V27.5297Z" fill="white"/>
<path d="M19.237 22.3897L25.6444 20.6849V62.4525L19.237 64.1573V22.3897Z" fill="white"/>
<path d="M30.5783 58.9578C28.985 57.5769 28.1884 55.1988 28.1884 51.8233V49.4365L34.2532 47.7914V50.6555C34.2532 53.3547 35.3582 54.406 37.5683 53.8094C38.5703 53.5706 39.4523 52.9805 40.0524 52.1471C40.6755 51.122 40.974 49.9339 40.9091 48.7376C40.9753 47.2176 40.5684 45.7143 39.7441 44.4329C38.5659 42.9558 37.1115 41.7198 35.461 40.7931C33.2771 39.5511 31.387 37.8562 29.9188 35.8237C28.8167 33.9815 28.2697 31.8632 28.3426 29.7205C28.2448 26.7528 29.1032 23.8317 30.7925 21.384C32.5423 19.0543 35.0585 17.4102 37.9023 16.7385C40.9804 15.9145 43.3046 16.1985 44.8752 17.5909C46.4428 18.9803 47.2308 21.3584 47.2308 24.7424V26.4473L41.1575 28.0583V25.9102C41.1575 24.4782 40.8719 23.5065 40.3009 22.995C39.9692 22.7312 39.5722 22.561 39.1517 22.5025C38.7312 22.4441 38.3025 22.4994 37.9109 22.6626C35.7751 23.2309 34.7072 24.8533 34.7072 27.5299C34.6718 28.9274 35.0892 30.2991 35.8979 31.4424C37.1134 32.8923 38.5852 34.1085 40.2409 35.031C42.4507 36.2522 44.3474 37.9645 45.7831 40.0345C46.8673 42.0087 47.3914 44.2393 47.2993 46.4872C47.4084 49.5185 46.541 52.5051 44.8238 55.0112C43.0508 57.3697 40.5005 59.0323 37.6197 59.7079C34.5358 60.5888 32.1887 60.3387 30.5783 58.9578Z" fill="white"/>
<path d="M54.9148 18.6821L48.2076 20.4978V14.5309L68.0295 9.15228V15.1191L61.3222 16.9773V52.7782L54.9148 54.4829V18.6821Z" fill="white"/>
<path d="M69.982 8.61506L87.474 3.86719V9.83399L76.398 12.843V23.9242L85.2039 21.5375V27.5042L76.398 29.891V42.677L87.474 39.668V45.6348L69.982 50.3826V8.61506Z" fill="white"/>
<path d="M90.0695 3.17643L99.8605 0.516942C103.047 -0.352506 105.437 -0.12521 107.03 1.19886C108.623 2.52292 109.421 4.87272 109.421 8.24822V29.3622C109.544 32.3296 108.706 35.2579 107.03 37.7156C105.245 40.0203 102.711 41.6355 99.8605 42.2846L90.0695 44.944V3.17643ZM99.7406 36.3519C100.716 36.1153 101.575 35.5412 102.165 34.7323C102.787 33.738 103.086 32.5772 103.021 31.4079V9.68878C103.021 8.25675 102.739 7.29353 102.165 6.80766C101.817 6.5631 101.413 6.40854 100.989 6.35794C100.566 6.30736 100.137 6.36232 99.7406 6.51785L96.4769 7.37024V37.2043L99.7406 36.3519Z" fill="white"/>
<path d="M109.419 50.2475V44.0914L95.7773 47.7929L92.3669 48.7183L90.6617 49.1811V55.3356L92.3669 54.873L95.7773 53.948L109.419 50.2475Z" fill="white"/>
</g>
<defs>
<clipPath id="clip0_7_13">
<rect width="109.63" height="80" fill="white"/>
</clipPath>
</defs>
</svg>
