<svg width="270" height="52" viewBox="0 0 270 52" fill="none" xmlns="http://www.w3.org/2000/svg">
<path d="M74.3052 34.5284C72.4121 33.4915 70.887 32.0399 69.7827 30.1735C68.6784 28.3071 68.0999 26.2333 68.0999 23.8484C68.0999 21.5154 68.6784 19.4417 69.7827 17.5753C70.887 15.7089 72.4121 14.2572 74.3052 13.2203C76.1983 12.1834 78.3018 11.665 80.563 11.665C82.8768 11.665 84.9277 12.1834 86.8208 13.2203C88.714 14.2572 90.1864 15.7089 91.2907 17.5753C92.395 19.4417 92.9209 21.5154 92.9209 23.8484C92.9209 26.1814 92.395 28.3071 91.2907 30.1735C90.1864 32.0399 88.714 33.4915 86.7683 34.5284C84.8751 35.5653 82.7717 36.0837 80.5104 36.0837C78.3018 36.0837 76.1983 35.5653 74.3052 34.5284ZM84.4018 30.8474C85.5062 30.1735 86.4001 29.2921 87.0312 28.0478C87.6622 26.8554 87.9778 25.4556 87.9778 23.8484C87.9778 22.2413 87.6622 20.8415 87.0312 19.649C86.4001 18.4566 85.5588 17.5234 84.4018 16.9013C83.2975 16.2792 81.9829 15.9681 80.563 15.9681C79.0906 15.9681 77.8285 16.2792 76.6716 16.9013C75.5673 17.5234 74.6733 18.4566 74.0422 19.649C73.4112 20.8415 73.0957 22.2413 73.0957 23.8484C73.0957 25.4556 73.4112 26.8554 74.0422 28.0478C74.6733 29.2403 75.5673 30.1735 76.6716 30.8474C77.7759 31.5214 79.0906 31.8325 80.563 31.8325C82.0354 31.8325 83.2975 31.4696 84.4018 30.8474Z" fill="#212529"/>
<path d="M104.017 17.4716C105.121 16.9013 106.383 16.5902 107.803 16.5902C109.433 16.5902 110.958 17.005 112.273 17.7826C113.588 18.5603 114.639 19.7009 115.428 21.2044C116.217 22.656 116.585 24.3669 116.585 26.337C116.585 28.3071 116.217 30.0179 115.428 31.4696C114.639 32.9731 113.588 34.1137 112.273 34.9432C110.958 35.7727 109.433 36.1874 107.803 36.1874C106.383 36.1874 105.121 35.8764 104.069 35.3061C103.018 34.7358 102.124 34.01 101.44 33.1286V44.8973H96.602V16.9013H101.44V19.649C102.071 18.7677 102.912 18.0419 104.017 17.4716ZM110.906 23.33C110.432 22.5005 109.801 21.8784 109.012 21.4118C108.224 20.997 107.382 20.7378 106.488 20.7378C105.594 20.7378 104.806 20.9452 104.017 21.4118C103.228 21.8784 102.597 22.5005 102.124 23.33C101.65 24.1595 101.387 25.1446 101.387 26.2851C101.387 27.4257 101.65 28.4108 102.124 29.2403C102.597 30.0698 103.228 30.7438 104.017 31.1585C104.806 31.6251 105.594 31.8325 106.488 31.8325C107.382 31.8325 108.224 31.6251 109.012 31.1585C109.801 30.6919 110.432 30.0698 110.906 29.1884C111.379 28.3589 111.642 27.322 111.642 26.1815C111.589 25.1446 111.379 24.1595 110.906 23.33Z" fill="#212529"/>
<path d="M137.883 27.7886H123.842C123.947 29.1366 124.42 30.2253 125.314 31.003C126.156 31.7807 127.208 32.1436 128.47 32.1436C130.258 32.1436 131.572 31.3659 132.308 29.8624H137.567C136.989 31.677 135.937 33.1805 134.359 34.3729C132.782 35.5653 130.836 36.1356 128.575 36.1356C126.734 36.1356 125.051 35.7208 123.579 34.9432C122.107 34.1137 120.95 32.9731 120.161 31.5214C119.319 30.0179 118.951 28.3071 118.951 26.3888C118.951 24.4187 119.372 22.7079 120.161 21.2044C120.95 19.7009 122.107 18.5603 123.579 17.7826C125.051 17.005 126.734 16.5902 128.627 16.5902C130.468 16.5902 132.098 16.9531 133.518 17.7308C134.99 18.5085 136.095 19.5972 136.883 21.0488C137.672 22.5005 138.093 24.1077 138.093 25.9741C137.988 26.6481 137.935 27.2702 137.883 27.7886ZM132.939 24.5743C132.939 23.33 132.466 22.345 131.572 21.6191C130.678 20.8933 129.627 20.5304 128.364 20.5304C127.155 20.5304 126.156 20.8933 125.314 21.6191C124.473 22.345 124 23.33 123.789 24.6261H132.939V24.5743Z" fill="#212529"/>
<path d="M157.76 18.7677C159.18 20.2193 159.864 22.1894 159.864 24.7298V35.8764H155.026V25.3519C155.026 23.8484 154.658 22.7079 153.869 21.8784C153.08 21.0488 152.081 20.6859 150.766 20.6859C149.399 20.6859 148.347 21.1007 147.611 21.8784C146.822 22.7079 146.454 23.8484 146.454 25.3519V35.8245H141.616V16.9013H146.454V19.2861C147.085 18.4566 147.927 17.8345 148.926 17.3679C149.925 16.9013 151.029 16.6421 152.239 16.6421C154.5 16.5902 156.341 17.316 157.76 18.7677Z" fill="#212529"/>
<path d="M164.807 13.8425C164.229 13.324 163.966 12.65 163.966 11.8205C163.966 11.0429 164.229 10.3689 164.807 9.7986C165.386 9.22831 166.069 8.96909 166.963 8.96909C167.805 8.96909 168.541 9.22831 169.119 9.7986C169.698 10.317 169.961 10.991 169.961 11.8205C169.961 12.5982 169.698 13.2722 169.119 13.8425C168.541 14.3609 167.857 14.672 166.963 14.672C166.122 14.6201 165.386 14.3609 164.807 13.8425ZM169.382 16.9013V35.8764H164.544V16.9013H169.382Z" fill="#212529"/>
<path d="M190.364 18.7677C191.784 20.2193 192.468 22.1894 192.468 24.7298V35.8764H187.63V25.3519C187.63 23.8484 187.262 22.7079 186.473 21.8784C185.684 21.0488 184.685 20.6859 183.37 20.6859C182.003 20.6859 180.951 21.1007 180.215 21.8784C179.426 22.7079 179.058 23.8484 179.058 25.3519V35.8245H174.22V16.9013H179.058V19.2861C179.689 18.4566 180.531 17.8345 181.53 17.3679C182.529 16.9013 183.633 16.6421 184.843 16.6421C187.104 16.5902 188.944 17.316 190.364 18.7677Z" fill="#212529"/>
<path d="M211.977 31.3141H202.301L200.724 35.8764H195.623L204.352 11.9242H210.032L218.761 35.8764H213.608L211.977 31.3141ZM210.663 27.4776L207.139 17.4716L203.616 27.4776H210.663Z" fill="#0E6FFF"/>
<path d="M229.436 17.4716C230.541 16.9013 231.803 16.5902 233.223 16.5902C234.853 16.5902 236.378 17.005 237.692 17.7826C239.007 18.5603 240.059 19.7009 240.848 21.2044C241.636 22.656 242.005 24.3669 242.005 26.337C242.005 28.3071 241.636 30.0179 240.848 31.4696C240.059 32.9731 239.007 34.1137 237.692 34.9432C236.378 35.7727 234.853 36.1874 233.223 36.1874C231.803 36.1874 230.541 35.8764 229.489 35.3061C228.437 34.7358 227.543 34.01 226.86 33.1286V44.8973H222.022V16.9013H226.86V19.649C227.491 18.7677 228.332 18.0419 229.436 17.4716ZM236.325 23.33C235.852 22.5005 235.221 21.8784 234.432 21.4118C233.643 20.997 232.802 20.7378 231.908 20.7378C231.014 20.7378 230.225 20.9452 229.436 21.4118C228.648 21.8784 228.017 22.5005 227.543 23.33C227.07 24.1595 226.807 25.1446 226.807 26.2851C226.807 27.4257 227.07 28.4108 227.543 29.2403C228.017 30.0698 228.648 30.7438 229.436 31.1585C230.225 31.6251 231.014 31.8325 231.908 31.8325C232.802 31.8325 233.643 31.6251 234.432 31.1585C235.221 30.6919 235.852 30.0698 236.325 29.1884C236.798 28.3589 237.061 27.322 237.061 26.1815C237.009 25.1446 236.798 24.1595 236.325 23.33Z" fill="#0E6FFF"/>
<path d="M252.995 17.4716C254.1 16.9013 255.362 16.5902 256.781 16.5902C258.412 16.5902 259.937 17.005 261.251 17.7826C262.566 18.5603 263.618 19.7009 264.407 21.2044C265.195 22.656 265.563 24.3669 265.563 26.337C265.563 28.3071 265.195 30.0179 264.407 31.4696C263.618 32.9731 262.566 34.1137 261.251 34.9432C259.937 35.7727 258.412 36.1874 256.781 36.1874C255.362 36.1874 254.1 35.8764 253.048 35.3061C251.996 34.7358 251.102 34.01 250.418 33.1286V44.8973H245.58V16.9013H250.418V19.649C250.997 18.7677 251.891 18.0419 252.995 17.4716ZM259.831 23.33C259.358 22.5005 258.727 21.8784 257.938 21.4118C257.15 20.997 256.308 20.7378 255.414 20.7378C254.52 20.7378 253.731 20.9452 252.943 21.4118C252.154 21.8784 251.523 22.5005 251.049 23.33C250.576 24.1595 250.313 25.1446 250.313 26.2851C250.313 27.4257 250.576 28.4108 251.049 29.2403C251.523 30.0698 252.154 30.7438 252.943 31.1585C253.731 31.5733 254.52 31.8325 255.414 31.8325C256.308 31.8325 257.15 31.6251 257.938 31.1585C258.727 30.6919 259.358 30.0698 259.831 29.1884C260.305 28.3589 260.568 27.322 260.568 26.1815C260.568 25.1446 260.305 24.1595 259.831 23.33Z" fill="#0E6FFF"/>
<path d="M53.9015 9.38385C53.9015 8.60618 53.8489 7.82851 53.7963 7.10269C53.586 5.1326 53.2179 3.2662 52.5868 1.45164C50.7463 0.933199 48.8006 0.622132 46.8023 0.518443C46.4342 0.518443 46.0661 0.466599 45.6979 0.466599C38.9668 0.466599 32.8668 3.11067 28.3969 7.41376C26.6089 6.999 24.821 6.79162 22.9278 6.79162C17.8269 6.79162 13.0941 8.29511 9.1501 10.8873C7.51991 11.9761 5.99489 13.2203 4.68022 14.6201C5.10092 16.5384 5.73196 18.3529 6.57335 20.0638C9.62338 26.2851 15.2502 31.003 22.0865 32.9731C24.2425 39.1944 28.8176 44.2752 34.7599 47.0748C36.4427 47.9043 38.2832 48.5264 40.1763 48.9412C41.5436 47.6451 42.8057 46.1416 43.8574 44.5344C46.329 40.6979 47.8014 36.1874 47.8014 31.3141C47.8014 29.4995 47.5911 27.7368 47.223 26.0778C51.3773 21.7228 53.9015 15.8126 53.9015 9.38385ZM20.7718 25.0409C20.7718 25.8185 20.8244 26.5962 20.877 27.322C15.9864 25.1446 12.1476 21.1525 10.2544 16.1236C13.6726 13.3759 18.0899 11.665 22.8753 11.665C23.5063 11.665 24.0848 11.7168 24.7158 11.7687C22.2442 15.6052 20.7718 20.1675 20.7718 25.0409ZM26.1356 28.8255C25.8727 27.5812 25.7675 26.337 25.7675 25.0409C25.7675 20.4786 27.3451 16.331 29.9745 13.013C35.3909 15.0349 39.6505 19.2861 41.5962 24.6261C38.178 27.3739 33.7607 29.0847 28.9753 29.0847C28.0288 28.9811 27.0822 28.9292 26.1356 28.8255ZM38.5987 43.3938C33.9185 41.6311 30.1322 38.2612 27.871 33.9063C28.2391 33.9063 28.6072 33.9581 28.9753 33.9581C34.0763 33.9581 38.8091 32.4546 42.7531 29.8624C42.8057 30.3808 42.8057 30.8475 42.8057 31.3659C42.8057 35.8764 41.2807 40.0239 38.5987 43.3938ZM33.8133 9.28016C37.1263 6.84347 41.2281 5.39182 45.6979 5.39182C46.6971 5.39182 47.6437 5.44367 48.5376 5.5992C48.8006 6.84347 48.9057 8.08773 48.9057 9.38385C48.9057 13.5832 47.5911 17.4716 45.2772 20.6341C42.8583 15.7089 38.8091 11.665 33.8133 9.28016Z" fill="#0E6FFF"/>
<path d="M22.9278 38.7278C22.9278 38.7278 22.7175 36.654 20.4563 34.5284C18.195 32.4028 16.0916 32.2473 16.0916 32.2473C1.41984 29.5514 3.89142 51.4297 3.89142 51.4297C3.89142 51.4297 26.1356 53.0887 22.9278 38.7278ZM8.62423 46.5563C8.62423 46.5563 8.25613 36.2911 15.0924 37.017C15.0924 37.017 16.0916 37.017 17.0907 37.9502C18.0899 38.8834 18.0899 39.8684 18.0899 39.8684C19.0364 46.5563 8.62423 46.5563 8.62423 46.5563Z" fill="#0E6FFF"/>
</svg>
