<svg width="320" height="73" viewBox="0 0 320 73" fill="none" xmlns="http://www.w3.org/2000/svg">
<path fill-rule="evenodd" clip-rule="evenodd" d="M320 50.4382V72.9994H0V50.2736C39.2287 35.7869 96.2767 26.668 159.778 26.668C223.519 26.668 280.758 35.856 320 50.4382Z" fill="#2E2D2D"/>
<circle cx="160.5" cy="36.5" r="35.75" fill="white" stroke="url(#paint0_linear_385_165)" stroke-width="1.5"/>
<g clip-path="url(#clip0_385_165)">
<path d="M141.88 50.873C141.585 50.9544 141.341 50.9215 141.146 50.7742C140.952 50.6264 140.856 50.4015 140.856 50.0995C140.856 49.7976 140.952 49.5202 141.146 49.2674C141.339 49.0107 141.584 48.8413 141.88 48.7593C142.056 48.7105 142.219 48.708 142.369 48.7516C142.52 48.7933 142.638 48.8748 142.724 48.9961L142.336 49.3358C142.293 49.2684 142.231 49.2245 142.15 49.2043C142.071 49.1816 141.981 49.1842 141.88 49.2123C141.704 49.261 141.564 49.3549 141.461 49.4937C141.357 49.6307 141.306 49.7911 141.306 49.975C141.306 50.1588 141.357 50.2907 141.461 50.3705C141.564 50.4523 141.704 50.4688 141.88 50.42C141.979 50.3925 142.069 50.3453 142.15 50.2785C142.233 50.2112 142.294 50.1331 142.336 50.0442L142.724 50.169C142.64 50.3376 142.522 50.4852 142.372 50.6119C142.222 50.7366 142.058 50.8236 141.88 50.873Z" fill="#FF6417"/>
<path d="M144.68 50.058L144.187 50.1942L144.089 49.9021L143.357 50.1045L143.259 50.4511L142.766 50.5874L143.436 48.3698L144.01 48.2109L144.68 50.058ZM143.723 48.8217L143.492 49.6316L143.954 49.5039L143.723 48.8217Z" fill="#FF6417"/>
<path d="M144.847 47.979L145.593 47.7727C145.788 47.7187 145.951 47.7413 146.083 47.8405C146.216 47.941 146.282 48.0871 146.282 48.2787C146.282 48.4704 146.216 48.6533 146.083 48.8276C145.951 48.9994 145.788 49.1123 145.593 49.1663L145.298 49.248V49.8868L144.847 50.0113V47.979ZM145.298 48.8125L145.593 48.7308C145.662 48.7116 145.72 48.6706 145.765 48.6078C145.81 48.545 145.832 48.4769 145.832 48.4033C145.832 48.3298 145.81 48.2741 145.765 48.2362C145.72 48.1983 145.662 48.189 145.593 48.2082L145.298 48.2899V48.8125Z" fill="#FF6417"/>
<path d="M146.507 49.5514V47.5191L146.957 47.3945V49.4268L146.507 49.5514Z" fill="#FF6417"/>
<path d="M147.155 47.3404L148.618 46.9355V47.3827L148.112 47.5228V49.108L147.661 49.2326V47.6474L147.155 47.7875V47.3404Z" fill="#FF6417"/>
<path d="M150.42 48.4701L149.927 48.6063L149.829 48.3142L149.097 48.5166L148.999 48.8632L148.506 48.9995L149.176 46.7819L149.75 46.623L150.42 48.4701ZM149.463 47.2338L149.232 48.0438L149.694 47.9161L149.463 47.2338Z" fill="#FF6417"/>
<path d="M151.038 46.2656V47.8508L151.741 47.6562V48.1033L150.588 48.4225V46.3902L151.038 46.2656Z" fill="#FF6417"/>
<path d="M153.839 45.4922V45.9393L153.093 46.1456V46.5376L153.825 46.3352V46.7822L153.093 46.9847V47.7308L152.643 47.8554V45.8231L153.839 45.4922Z" fill="#FF6417"/>
<path d="M155.77 46.7252C155.572 46.9834 155.33 47.152 155.044 47.2309C154.759 47.3098 154.517 47.2751 154.319 47.1269C154.12 46.9787 154.02 46.7555 154.02 46.4575C154.02 46.1594 154.12 45.8812 154.319 45.623C154.517 45.3647 154.759 45.1962 155.044 45.1173C155.33 45.0384 155.572 45.073 155.77 45.2213C155.969 45.3695 156.069 45.5926 156.069 45.8907C156.069 46.1888 155.969 46.4669 155.77 46.7252ZM154.47 46.3329C154.47 46.511 154.525 46.6411 154.634 46.7232C154.742 46.8054 154.879 46.8237 155.044 46.778C155.208 46.7328 155.344 46.6391 155.452 46.4967C155.563 46.3519 155.618 46.1914 155.618 46.0153C155.618 45.8391 155.563 45.7093 155.452 45.6257C155.344 45.5435 155.208 45.525 155.044 45.5702C154.879 45.6159 154.742 45.7099 154.634 45.8522C154.525 45.9946 154.47 46.1548 154.47 46.3329Z" fill="#FF6417"/>
<path d="M157.842 46.4153L157.358 46.5492L156.986 45.9842L156.772 46.0433V46.7111L156.322 46.8357V44.8033L157.11 44.5854C157.298 44.5334 157.457 44.5571 157.588 44.6562C157.72 44.7554 157.785 44.9017 157.785 45.0953C157.785 45.2172 157.752 45.3408 157.684 45.4659C157.618 45.5905 157.531 45.6969 157.422 45.7851L157.842 46.4153ZM157.11 45.0208L156.772 45.1143V45.6369L157.11 45.5434C157.172 45.5263 157.225 45.4866 157.268 45.4244C157.313 45.3616 157.335 45.2934 157.335 45.2199C157.335 45.1463 157.313 45.0906 157.268 45.0527C157.225 45.0143 157.172 45.0037 157.11 45.0208Z" fill="#FF6417"/>
<path d="M159.697 45.9432C159.402 46.0248 159.157 45.9918 158.962 45.8445C158.769 45.6967 158.672 45.4718 158.672 45.1698C158.672 44.8679 158.769 44.5905 158.962 44.3377C159.155 44.081 159.4 43.9117 159.697 43.8296C159.873 43.7809 160.036 43.7783 160.186 43.8219C160.336 43.8636 160.454 43.9451 160.541 44.0664L160.152 44.4061C160.109 44.3387 160.047 44.2949 159.967 44.2746C159.888 44.2519 159.798 44.2545 159.697 44.2826C159.52 44.3314 159.381 44.4252 159.277 44.5641C159.174 44.701 159.123 44.8614 159.123 45.0453C159.123 45.2291 159.174 45.361 159.277 45.4408C159.381 45.5226 159.52 45.5391 159.697 45.4903C159.796 45.4628 159.886 45.4157 159.967 45.3488C160.049 45.2814 160.111 45.2034 160.152 45.1145L160.541 45.2394C160.456 45.4079 160.339 45.5555 160.189 45.6822C160.039 45.8069 159.875 45.894 159.697 45.9432Z" fill="#FF6417"/>
<path d="M162.271 45.1906L161.787 45.3245L161.416 44.7595L161.202 44.8187V45.4865L160.752 45.6111V43.5787L161.54 43.3607C161.727 43.3088 161.887 43.3324 162.018 43.4316C162.149 43.5308 162.215 43.6771 162.215 43.8707C162.215 43.9926 162.181 44.1162 162.114 44.2413C162.048 44.3659 161.961 44.4723 161.852 44.5605L162.271 45.1906ZM161.54 43.7962L161.202 43.8896V44.4123L161.54 44.3188C161.601 44.3017 161.654 44.262 161.697 44.1997C161.742 44.137 161.765 44.0688 161.765 43.9953C161.765 43.9217 161.742 43.866 161.697 43.8281C161.654 43.7897 161.601 43.7791 161.54 43.7962Z" fill="#FF6417"/>
<path d="M162.933 44.201V44.5611L163.721 44.3431V44.7902L162.483 45.1327V43.1004L163.707 42.7617V43.2088L162.933 43.4229V43.7597L163.636 43.5651V44.0064L162.933 44.201Z" fill="#FF6417"/>
<path d="M165.747 44.2279L165.254 44.3641L165.156 44.072L164.424 44.2744L164.326 44.6211L163.833 44.7573L164.503 42.5397L165.077 42.3809L165.747 44.2279ZM164.79 42.9916L164.559 43.8016L165.021 43.6739L164.79 42.9916Z" fill="#FF6417"/>
<path d="M165.634 42.2271L167.097 41.8223V42.2694L166.59 42.4095V43.9947L166.14 44.1193V42.5341L165.634 42.6742V42.2271Z" fill="#FF6417"/>
<path d="M168.847 43.106C168.648 43.3643 168.406 43.5329 168.121 43.6118C167.836 43.6907 167.594 43.656 167.395 43.5078C167.196 43.3595 167.097 43.1364 167.097 42.8383C167.097 42.5402 167.196 42.2621 167.395 42.0038C167.594 41.7456 167.836 41.577 168.121 41.4981C168.406 41.4193 168.648 41.4539 168.847 41.6021C169.046 41.7503 169.145 41.9735 169.145 42.2715C169.145 42.5696 169.046 42.8478 168.847 43.106ZM167.547 42.7137C167.547 42.8918 167.602 43.0219 167.71 43.1041C167.819 43.1863 167.956 43.2045 168.121 43.1588C168.284 43.1137 168.42 43.0199 168.529 42.8776C168.64 42.7327 168.695 42.5722 168.695 42.3961C168.695 42.22 168.64 42.0901 168.529 42.0066C168.42 41.9244 168.284 41.9059 168.121 41.951C167.956 41.9967 167.819 42.0907 167.71 42.2331C167.602 42.3755 167.547 42.5357 167.547 42.7137Z" fill="#FF6417"/>
<path d="M170.918 42.7981L170.434 42.932L170.063 42.367L169.849 42.4262V43.0939L169.399 43.2185V41.1862L170.187 40.9681C170.374 40.9163 170.534 40.9399 170.665 41.039C170.796 41.1382 170.862 41.2846 170.862 41.4781C170.862 41.6001 170.828 41.7236 170.761 41.8487C170.695 41.9734 170.608 42.0798 170.499 42.1679L170.918 42.7981ZM170.187 41.4037L169.849 41.4971V42.0197L170.187 41.9263C170.249 41.9091 170.301 41.8694 170.344 41.8072C170.389 41.7444 170.412 41.6762 170.412 41.6027C170.412 41.5291 170.389 41.4734 170.344 41.4356C170.301 41.3972 170.249 41.3865 170.187 41.4037Z" fill="#FF6417"/>
<path d="M171.792 42.5974C171.595 42.6518 171.429 42.6542 171.294 42.6045C171.159 42.5529 171.062 42.4557 171.004 42.3131L171.392 41.9734C171.471 42.1393 171.609 42.1951 171.806 42.1406C171.984 42.0912 172.073 42.0114 172.073 41.9011C172.073 41.8392 172.044 41.8007 171.986 41.7859C171.926 41.7657 171.819 41.7556 171.665 41.7556C171.508 41.7547 171.374 41.7277 171.266 41.6745C171.146 41.6071 171.085 41.4815 171.085 41.2976C171.085 41.1098 171.15 40.9419 171.28 40.7938C171.411 40.6452 171.567 40.546 171.747 40.4962C171.908 40.4516 172.051 40.4518 172.174 40.4969C172.298 40.5401 172.396 40.6263 172.467 40.7556L172.087 41.0901C172.016 40.953 171.902 40.906 171.747 40.9491C171.681 40.9673 171.629 40.9961 171.592 41.0355C171.554 41.0749 171.536 41.1169 171.536 41.1614C171.536 41.2098 171.558 41.2471 171.603 41.2733C171.652 41.2986 171.748 41.3128 171.89 41.3159L172.073 41.3263C172.12 41.3288 172.174 41.3398 172.236 41.3595C172.304 41.3756 172.355 41.3994 172.388 41.4307C172.478 41.5064 172.523 41.6197 172.523 41.7707C172.523 41.9623 172.456 42.1339 172.321 42.2855C172.186 42.4332 172.009 42.5372 171.792 42.5974Z" fill="#FF6417"/>
<path d="M140.721 32.0543L143.059 31.4336V44.4675L146.902 43.4186V45.5909L140.721 47.2666V32.0543Z" fill="#212529"/>
<path d="M147.627 30.1832L149.962 29.5625V44.7687L147.627 45.3894V30.1832Z" fill="#212529"/>
<path d="M151.76 43.495C151.18 42.9923 150.889 42.1264 150.889 40.8975V40.0286L153.1 39.4297V40.4724C153.1 41.4551 153.502 41.8378 154.308 41.6206C154.673 41.5337 154.994 41.3188 155.213 41.0154C155.44 40.6422 155.549 40.2097 155.525 39.7741C155.55 39.2207 155.401 38.6735 155.101 38.207C154.671 37.6692 154.141 37.2192 153.54 36.8818C152.744 36.4296 152.055 35.8126 151.52 35.0726C151.118 34.4019 150.919 33.6307 150.946 32.8507C150.91 31.7702 151.223 30.7067 151.838 29.8156C152.476 28.9675 153.393 28.3689 154.43 28.1243C155.551 27.8244 156.398 27.9278 156.971 28.4347C157.542 28.9405 157.829 29.8063 157.829 31.0383V31.659L155.616 32.2455V31.4635C155.616 30.9421 155.512 30.5883 155.304 30.4021C155.183 30.3061 155.038 30.2441 154.885 30.2228C154.732 30.2015 154.575 30.2217 154.433 30.2811C153.654 30.488 153.265 31.0787 153.265 32.0531C153.252 32.5619 153.404 33.0613 153.699 33.4775C154.142 34.0054 154.678 34.4482 155.282 34.784C156.087 35.2286 156.778 35.852 157.302 36.6056C157.697 37.3244 157.888 38.1365 157.854 38.9548C157.894 40.0585 157.578 41.1458 156.952 42.0582C156.306 42.9168 155.377 43.5221 154.327 43.7681C153.203 44.0888 152.347 43.9977 151.76 43.495Z" fill="#212529"/>
<path d="M160.63 28.8328L158.185 29.4938V27.3215L165.409 25.3633V27.5356L162.965 28.2121V41.246L160.63 41.8666V28.8328Z" fill="#212529"/>
<path d="M166.194 25.2539L172.569 23.5254V25.6977L168.533 26.7932V30.8275L171.742 29.9585V32.1308L168.533 32.9998V37.6547L172.569 36.5593V38.7316L166.194 40.4601V25.2539Z" fill="#212529"/>
<path d="M173.442 23.1877L177.01 22.2195C178.171 21.9029 179.042 21.9857 179.623 22.4677C180.203 22.9498 180.494 23.8052 180.494 25.0342V32.721C180.539 33.8014 180.233 34.8675 179.623 35.7623C178.972 36.6013 178.049 37.1894 177.01 37.4256L173.442 38.3939V23.1877ZM176.966 35.2658C177.322 35.1796 177.635 34.9706 177.85 34.6761C178.076 34.3141 178.185 33.8915 178.162 33.4658V25.5586C178.162 25.0373 178.059 24.6866 177.85 24.5097C177.723 24.4207 177.576 24.3644 177.421 24.346C177.267 24.3275 177.111 24.3476 176.966 24.4042L175.777 24.7145V35.5761L176.966 35.2658Z" fill="#212529"/>
<path d="M180.493 40.3252V38.084L175.522 39.4316L174.279 39.7685L173.657 39.937V42.1776L174.279 42.0092L175.522 41.6724L180.493 40.3252Z" fill="#212529"/>
</g>
<defs>
<linearGradient id="paint0_linear_385_165" x1="160.5" y1="0" x2="160.5" y2="73" gradientUnits="userSpaceOnUse">
<stop stop-color="#FF6B00"/>
<stop offset="0.505208" stop-color="#FF6B00"/>
<stop offset="1" stop-color="#FF6B00"/>
</linearGradient>
<clipPath id="clip0_385_165">
<rect width="39.954" height="29.1253" fill="white" transform="translate(140.616 22.0312)"/>
</clipPath>
</defs>
</svg>
