<svg width="24" height="17" viewBox="0 0 24 17" fill="none" xmlns="http://www.w3.org/2000/svg">
<path d="M22.4422 2.79398L22.4425 2.79522C22.6705 3.63807 22.7976 4.99127 22.8642 6.18678C22.8969 6.7735 22.9142 7.30394 22.9233 7.68774C22.9279 7.87947 22.9304 8.03419 22.9318 8.14055C22.9324 8.19372 22.9328 8.23477 22.9331 8.26229L22.9333 8.29322L22.9333 8.30074L22.9333 8.30184L22.9333 8.30938L22.9332 8.34042C22.9331 8.36803 22.9329 8.40923 22.9324 8.46257C22.9314 8.56929 22.9295 8.72451 22.9256 8.9168C22.9179 9.30171 22.9025 9.83346 22.8717 10.421C22.8088 11.619 22.6853 12.97 22.4581 13.8029L22.4574 13.8056C22.2532 14.5657 21.6494 15.1695 20.8893 15.3737L20.8866 15.3744C20.5061 15.4782 19.7672 15.569 18.8085 15.64C17.8713 15.7094 16.7857 15.756 15.7505 15.7872C14.7164 15.8184 13.7386 15.834 13.019 15.8418C12.6593 15.8457 12.3645 15.8477 12.1598 15.8486C12.0574 15.8491 11.9776 15.8494 11.9236 15.8495L11.8621 15.8496L11.8466 15.8496L11.8428 15.8496H11.8419H11.8417L11.8417 16.5996L11.8416 15.8496H11.8414H11.8405L11.8367 15.8496L11.8212 15.8496L11.7598 15.8495C11.7057 15.8494 11.6259 15.8491 11.5235 15.8486C11.3188 15.8477 11.024 15.8457 10.6643 15.8418C9.94471 15.834 8.96694 15.8184 7.93287 15.7872C6.89758 15.756 5.81199 15.7094 4.87485 15.64C3.91618 15.569 3.17728 15.4782 2.79673 15.3744L2.79398 15.3737C2.03394 15.1695 1.43014 14.5657 1.22595 13.8056L1.22562 13.8044C0.997984 12.9628 0.874495 11.6108 0.811671 10.4152C0.780849 9.82864 0.765407 9.29833 0.757686 8.91461C0.753829 8.72292 0.751907 8.56824 0.750949 8.46192C0.750471 8.40877 0.750233 8.36774 0.750116 8.34024L0.750014 8.30933L0.750001 8.30183L0.75 8.30012L0.75 8.29985V8.29982V8.2998V8.29979V8.29975L0.75 8.29948L0.750001 8.29776L0.750013 8.29023L0.750112 8.25928C0.750227 8.23175 0.750457 8.19068 0.750921 8.13751C0.751851 8.03115 0.753716 7.87645 0.757458 7.68479C0.764948 7.30114 0.779928 6.77107 0.80983 6.18518C0.870735 4.9918 0.990455 3.64326 1.21112 2.80782C1.41566 2.04842 2.01919 1.44522 2.77878 1.24115L2.77878 1.24116L2.78153 1.24041C3.16269 1.13646 3.90213 1.04474 4.86076 0.972323C5.79802 0.90152 6.88371 0.853015 7.91904 0.819922C8.95315 0.786868 9.93096 0.769375 10.6506 0.760152C11.0103 0.755542 11.3051 0.753002 11.5099 0.751616C11.6122 0.750923 11.692 0.750518 11.7461 0.750286L11.8075 0.750055L11.823 0.75001L11.8269 0.750001L11.8276 0.75L11.8314 0.750002L11.8469 0.750015L11.9084 0.750121C11.9624 0.750242 12.0422 0.750485 12.1446 0.750971C12.3493 0.751945 12.6441 0.753894 13.0038 0.757794C13.7234 0.765598 14.7012 0.781201 15.7353 0.812364C16.7705 0.843565 17.8561 0.890188 18.7933 0.95958C19.7519 1.03057 20.4908 1.12142 20.8714 1.22521L20.8741 1.22595C21.6342 1.43014 22.238 2.03394 22.4422 2.79398Z" stroke="#58636E" stroke-width="1.5"/>
<path d="M9.37012 11.8563L15.5114 8.29925L9.37012 4.74219V11.8563Z" fill="#58636E"/>
</svg>
